<svg width="95" height="95" viewBox="0 0 95 95" fill="none" xmlns="http://www.w3.org/2000/svg">
<path d="M47.5 95C21.3074 95 0 73.6926 0 47.5C0 21.3074 21.3074 0 47.5 0C73.6926 0 95 21.3074 95 47.5C95 73.6926 73.6926 95 47.5 95ZM47.5 5.9375C24.5813 5.9375 5.9375 24.5813 5.9375 47.5C5.9375 70.4187 24.5813 89.0625 47.5 89.0625C70.4187 89.0625 89.0625 70.4187 89.0625 47.5C89.0625 24.5813 70.4187 5.9375 47.5 5.9375Z" fill="white"/>
<path d="M68.2812 50.4688H26.7188C25.08 50.4688 23.75 49.1388 23.75 47.5C23.75 45.8612 25.08 44.5312 26.7188 44.5312H68.2812C69.92 44.5312 71.25 45.8612 71.25 47.5C71.25 49.1388 69.92 50.4688 68.2812 50.4688Z" fill="white"/>
<path d="M47.5 71.25C45.8612 71.25 44.5312 69.92 44.5312 68.2812V26.7188C44.5312 25.08 45.8612 23.75 47.5 23.75C49.1388 23.75 50.4688 25.08 50.4688 26.7188V68.2812C50.4688 69.92 49.1388 71.25 47.5 71.25Z" fill="white"/>
</svg>
